<?xml version="1.0" encoding="utf-8" ?>
<svg xmlns="http://www.w3.org/2000/svg" xmlns:xlink="http://www.w3.org/1999/xlink" width="200" height="70">
	<path fill="#0D3B66" transform="scale(0.195312 0.136719)" d="M0 0L0 512L1024 512L1024 0L0 0Z"/>
	<path fill="#F4D35E" transform="scale(0.195312 0.136719)" d="M515.287 289.558C512.004 289.58 508.64 289.696 505.369 289.446C470.608 286.791 441.243 263.31 428.4 231.166C417.893 260.217 385.832 282.865 355.54 285.51C352.153 285.806 348.714 285.694 345.316 285.696L286.596 285.73L286.566 279.21C286.719 265.517 291.685 251.686 300.849 241.46C303.143 238.9 305.881 236.88 308.325 234.486C329.962 213.288 332.324 177.392 311.619 154.831C309.726 152.769 307.636 150.847 305.856 148.687C295.507 136.121 294.388 120.905 294.54 105.438L343.632 105.436C379.49 105.462 411.899 123.147 427.363 156.482C427.834 155.891 428.11 154.181 428.409 153.398C440.623 121.424 475.253 96.689 509.87 97.0853C547.993 95.4391 584.277 120.994 596.893 156.757C607.351 129.016 639.917 108.65 668.37 105.879C676.426 105.094 684.688 105.437 692.78 105.434L729.174 105.463C729.471 106.608 729.341 107.99 729.346 109.174L729.349 116.023C729.294 126.932 725.093 139.697 718.467 148.367C716.23 151.295 713.182 153.662 710.813 156.527C693.247 177.771 693.748 209.864 712.132 230.586C715.281 234.136 718.902 237.116 722.238 240.468C734.979 253.275 737.52 268.701 737.47 285.665C734.491 285.986 731.216 285.721 728.211 285.72L682.818 285.705C677.417 285.701 671.889 285.972 666.523 285.328C633.428 281.354 608.222 260.763 595.529 230.745C582.295 264.604 552.39 288.054 515.287 289.558ZM335.668 135.717C363.128 168.085 363.58 218.104 335.22 249.978C334.37 250.933 332.078 253.864 331.319 254.534L342.293 255.168C354.103 255.147 362.833 253.953 373.544 248.555C425.613 219.689 410.207 143.04 353.313 136.063C347.543 135.356 341.477 135.706 335.668 135.717ZM676.469 135.743C642.77 137.27 616.922 163.943 618.473 198.278C619.603 223.291 636.317 244.863 659.996 252.466C666.934 254.495 672.935 255.135 680.093 255.158L693.51 255.053C692.266 254.456 691.578 252.964 690.621 251.957C660.728 220.485 660.079 169.541 687.595 136.494C687.846 136.192 688.345 136.013 688.54 135.714L676.469 135.743ZM507.93 139.493C491.721 140.747 476.987 148.189 466.394 160.526C432.396 200.126 464.307 261.181 516.24 257.908C570.177 252.506 591.255 186.478 549.775 152.801C538.555 143.692 522.77 138.152 508.225 139.453L507.93 139.493Z"/>
	<path fill="#F4D35E" transform="scale(0.195312 0.136719)" d="M513.917 227.898C506.102 228.157 499.339 226.118 493.337 221.037C473.047 203.855 484.469 171.55 510.261 169.725C547.637 167.438 552.44 224.03 513.917 227.898Z"/>
	<path fill="#FAF0CA" transform="scale(0.195312 0.136719)" d="M158.169 445.905C151.233 445.905 145.692 444.552 141.547 441.845C137.402 439.138 134.441 435.268 132.665 430.234C130.888 425.201 130 419.301 130 412.533L130 373.578C130 366.811 130.909 360.995 132.728 356.131C134.547 351.267 137.508 347.545 141.61 344.965C145.713 342.385 151.233 341.095 158.169 341.095C165.106 341.095 170.605 342.406 174.665 345.028C178.725 347.651 181.665 351.373 183.484 356.195C185.303 361.016 186.212 366.811 186.212 373.578L186.212 412.66C186.212 419.343 185.303 425.18 183.484 430.171C181.665 435.162 178.725 439.032 174.665 441.781C170.605 444.531 165.106 445.905 158.169 445.905ZM158.169 434.612C161.976 434.612 164.852 433.83 166.798 432.265C168.743 430.7 170.055 428.5 170.731 425.666C171.408 422.833 171.747 419.512 171.747 415.706L171.747 370.66C171.747 366.853 171.408 363.575 170.731 360.826C170.055 358.077 168.743 355.962 166.798 354.482C164.852 353.001 161.976 352.261 158.169 352.261C154.363 352.261 151.465 353.001 149.477 354.482C147.49 355.962 146.157 358.077 145.48 360.826C144.804 363.575 144.465 366.853 144.465 370.66L144.465 415.706C144.465 419.512 144.804 422.833 145.48 425.666C146.157 428.5 147.49 430.7 149.477 432.265C151.465 433.83 154.363 434.612 158.169 434.612ZM200.297 444.763L200.297 341.983L214.635 341.983L214.635 434.485L240.901 434.485L240.901 444.763L200.297 444.763ZM250.672 444.763L250.672 341.983L265.01 341.983L265.01 386.394L291.403 386.394L291.403 341.983L305.742 341.983L305.742 444.763L291.403 444.763L291.403 396.672L265.01 396.672L265.01 444.763L250.672 444.763ZM316.273 444.763L338.098 341.983L351.929 341.983L373.881 444.763L360.304 444.763L355.609 418.878L334.672 418.878L329.724 444.763L316.273 444.763ZM336.576 408.6L353.706 408.6L345.077 362.285L336.576 408.6ZM424.637 444.763L424.637 352.642L407.253 352.642L407.253 341.983L455.851 341.983L455.851 352.642L438.975 352.642L438.975 444.763L424.637 444.763ZM489.985 445.905C484.063 445.905 479.136 444.636 475.202 442.099C471.269 439.561 468.287 436.05 466.256 431.567C464.226 427.083 463.042 421.881 462.703 415.959L475.392 412.533C475.646 416.171 476.217 419.681 477.105 423.065C477.994 426.449 479.453 429.219 481.483 431.376C483.513 433.534 486.347 434.612 489.985 434.612C493.706 434.612 496.519 433.576 498.423 431.503C500.326 429.431 501.278 426.449 501.278 422.558C501.278 417.905 500.221 414.162 498.106 411.328C495.99 408.494 493.326 405.639 490.112 402.763L472.855 387.536C469.47 384.576 466.976 381.34 465.368 377.829C463.76 374.319 462.957 369.983 462.957 364.823C462.957 357.294 465.114 351.457 469.429 347.312C473.743 343.167 479.622 341.095 487.066 341.095C491.127 341.095 494.701 341.623 497.788 342.681C500.876 343.738 503.456 345.367 505.529 347.566C507.601 349.766 509.25 352.536 510.477 355.877C511.704 359.219 512.529 363.131 512.952 367.615L500.77 370.914C500.516 367.53 500.009 364.421 499.248 361.587C498.486 358.754 497.154 356.47 495.251 354.735C493.347 353.001 490.619 352.134 487.066 352.134C483.513 352.134 480.743 353.086 478.755 354.989C476.767 356.892 475.773 359.705 475.773 363.427C475.773 366.557 476.302 369.137 477.359 371.168C478.416 373.198 480.129 375.27 482.498 377.385L499.882 392.612C503.774 395.996 507.2 400.035 510.16 404.73C513.12 409.425 514.601 414.987 514.601 421.416C514.601 426.491 513.544 430.869 511.429 434.549C509.314 438.228 506.417 441.041 502.737 442.987C499.057 444.932 494.806 445.905 489.985 445.905ZM552.287 445.905C544.843 445.905 539.133 444.425 535.157 441.464C531.182 438.503 528.474 434.337 527.036 428.966C525.599 423.594 524.879 417.313 524.879 410.122L524.879 341.983L538.583 341.983L538.583 410.757C538.583 415.156 538.879 419.174 539.471 422.811C540.064 426.449 541.353 429.325 543.342 431.44C545.33 433.555 548.312 434.612 552.287 434.612C556.348 434.612 559.351 433.555 561.296 431.44C563.242 429.325 564.51 426.449 565.103 422.811C565.696 419.174 565.991 415.156 565.991 410.757L565.991 341.983L579.568 341.983L579.568 410.122C579.568 417.313 578.849 423.594 577.411 428.966C575.974 434.337 573.287 438.503 569.354 441.464C565.42 444.425 559.732 445.905 552.287 445.905ZM594.668 444.763L594.668 341.983L615.351 341.983C622.203 341.983 627.871 342.892 632.354 344.711C636.837 346.53 640.158 349.448 642.315 353.466C644.472 357.485 645.551 362.751 645.551 369.264C645.551 373.24 645.128 376.856 644.282 380.113C643.436 383.37 642.083 386.119 640.221 388.361C638.36 390.603 635.907 392.231 632.862 393.246L647.454 444.763L633.623 444.763L620.173 396.545L609.007 396.545L609.007 444.763L594.668 444.763ZM609.007 386.267L614.463 386.267C618.523 386.267 621.823 385.76 624.36 384.745C626.898 383.73 628.76 381.995 629.943 379.542C631.127 377.089 631.72 373.663 631.72 369.264C631.72 363.258 630.62 358.923 628.421 356.258C626.222 353.593 621.864 352.261 615.351 352.261L609.007 352.261L609.007 386.267ZM660.524 444.763L660.524 341.983L700.367 341.983L700.367 352.642L674.862 352.642L674.862 386.648L695.545 386.648L695.545 396.799L674.862 396.799L674.862 434.485L700.621 434.485L700.621 444.763L660.524 444.763ZM712.168 444.763L712.168 341.983L721.938 341.983L751.123 410.249L751.123 341.983L763.05 341.983L763.05 444.763L753.914 444.763L724.349 374.594L724.349 444.763L712.168 444.763ZM779.165 444.763L779.165 341.983L793.504 341.983L793.504 390.455L817.105 341.983L830.428 341.983L810.126 387.282L833.728 444.763L819.77 444.763L800.102 396.545L793.504 408.473L793.504 444.763L779.165 444.763ZM865.957 445.905C859.02 445.905 853.48 444.552 849.335 441.845C845.189 439.138 842.229 435.268 840.453 430.234C838.676 425.201 837.788 419.301 837.788 412.533L837.788 373.578C837.788 366.811 838.698 360.995 840.516 356.131C842.334 351.267 845.296 347.545 849.398 344.965C853.501 342.385 859.02 341.095 865.957 341.095C872.894 341.095 878.393 342.406 882.453 345.028C886.513 347.651 889.453 351.373 891.272 356.195C893.09 361.016 894 366.811 894 373.578L894 412.66C894 419.343 893.09 425.18 891.272 430.171C889.453 435.162 886.513 439.032 882.453 441.781C878.393 444.531 872.894 445.905 865.957 445.905ZM865.957 434.612C869.764 434.612 872.641 433.83 874.586 432.265C876.531 430.7 877.843 428.5 878.519 425.666C879.196 422.833 879.535 419.512 879.535 415.706L879.535 370.66C879.535 366.853 879.196 363.575 878.519 360.826C877.843 358.077 876.531 355.962 874.586 354.482C872.641 353.001 869.764 352.261 865.957 352.261C862.151 352.261 859.254 353.001 857.265 354.482C855.277 355.962 853.945 358.077 853.268 360.826C852.592 363.575 852.253 366.853 852.253 370.66L852.253 415.706C852.253 419.512 852.592 422.833 853.268 425.666C853.945 428.5 855.277 430.7 857.265 432.265C859.254 433.83 862.151 434.612 865.957 434.612Z"/>
</svg>
